<?xml version="1.0" encoding="UTF-8"?> <svg xmlns="http://www.w3.org/2000/svg" viewBox="0 0 510.23 84.13"> <defs> <style>.cls-1{fill:#279ed9;}</style> </defs> <title>Thrstylogo</title> <g id="Layer_2" data-name="Layer 2"> <g id="Layer_3" data-name="Layer 3"> <path d="M257,71,267.61,58.3c7.35,6.08,15.07,9.93,24.41,9.93,7.36,0,11.81-2.92,11.81-7.71v-.23c0-4.56-2.81-6.89-16.48-10.4-16.47-4.21-27.11-8.76-27.11-25v-.23C260.25,9.81,272.17,0,288.87,0a47.34,47.34,0,0,1,30.38,10.4L309.91,24c-7.25-5-14.38-8.06-21.27-8.06S278.12,19,278.12,23v.24c0,5.37,3.5,7.13,17.65,10.75,16.58,4.32,25.94,10.29,25.94,24.54v.24c0,16.24-12.39,25.36-30,25.36A52.07,52.07,0,0,1,257,71Z"></path> <polygon points="130.65 1.88 130.65 33.53 101.09 33.53 101.09 1.88 83.5 1.88 83.5 81.85 101.09 81.85 101.09 49.75 130.65 49.75 130.65 81.85 148.24 81.85 148.24 1.88 130.65 1.88"></polygon> <polygon points="64.74 1.36 0 1.36 0 18 23.34 18 23.34 83.4 41.39 83.4 41.39 18 64.74 18 64.74 1.36"></polygon> <polygon points="405.21 2.08 340.47 2.08 340.47 18.73 363.81 18.73 363.81 84.13 381.87 84.13 381.87 18.73 405.21 18.73 405.21 2.08"></polygon> <polygon points="480.37 2.08 463.38 33.08 446.83 2.08 424.69 2.08 454.17 48.55 454.17 84.13 472.44 84.13 472.44 48.22 501.93 2.08 480.37 2.08"></polygon> <circle class="cls-1" cx="499.17" cy="73.07" r="11.07"></circle> <path class="cls-1" d="M221,53.8C231.21,50,238.18,41.92,238.18,29v-.23c0-7.54-2.4-13.82-6.85-18.27C226.07,5.26,218.19,2.4,208,2.4H167l10.46,15.87h29.08c8.57,0,13.82,3.89,13.82,11.42v.23c0,6.74-2.42,11.25-13.42,11.25l-14.31.12,6.21,9.42h0L220,82.35h20.56Z"></path> </g> </g> </svg> 